<?xml version="1.0" standalone="no"?>
<!DOCTYPE svg PUBLIC "-//W3C//DTD SVG 20010904//EN"
 "http://www.w3.org/TR/2001/REC-SVG-20010904/DTD/svg10.dtd">
<svg version="1.0" xmlns="http://www.w3.org/2000/svg"
 width="1500.000000pt" height="1500.000000pt" viewBox="0 0 1500.000000 1500.000000"
 preserveAspectRatio="xMidYMid meet">
<metadata>
Created by potrace 1.14, written by Peter Selinger 2001-2017
</metadata>
<g transform="translate(0.000000,1500.000000) scale(0.100000,-0.100000)"
fill="#000000" stroke="none">
<path d="M0 7500 l0 -7500 7500 0 7500 0 0 7500 0 7500 -7500 0 -7500 0 0
-7500z m7945 5980 c537 -50 1054 -177 1505 -370 395 -169 688 -335 1050 -595
416 -300 849 -743 1156 -1187 511 -738 806 -1563 885 -2475 16 -188 7 -800
-15 -963 -75 -569 -225 -1064 -472 -1560 -185 -370 -293 -538 -429 -668 -192
-182 -395 -269 -657 -279 -162 -7 -265 6 -392 49 -375 125 -617 386 -713 768
-15 58 -17 232 -23 1725 -6 1652 -6 1660 -27 1747 -181 730 -1012 1065 -1632
657 -234 -154 -379 -363 -463 -669 -9 -34 -13 -407 -18 -1590 l-5 -1545 -27
-47 c-21 -34 -41 -53 -80 -72 -111 -55 -212 -17 -273 105 l-25 48 0 1458 c0
884 -4 1495 -10 1551 -27 252 -117 445 -290 621 -317 322 -806 407 -1216 211
-328 -158 -545 -452 -599 -815 -13 -85 -15 -321 -15 -1578 0 -1433 -1 -1479
-19 -1515 -49 -95 -154 -136 -249 -97 -50 21 -79 50 -110 110 l-27 50 0 1535
c0 1418 1 1542 17 1627 88 464 375 850 784 1056 463 234 1022 205 1449 -74
191 -124 342 -278 449 -456 21 -35 42 -63 46 -63 5 0 16 13 24 28 31 60 157
211 247 295 421 397 1025 505 1568 281 296 -122 568 -374 720 -665 71 -136
103 -223 143 -384 l22 -90 6 -1665 c5 -1562 7 -1669 24 -1725 50 -169 181
-328 331 -402 120 -60 191 -76 325 -77 137 -1 225 22 334 86 146 86 247 226
442 613 243 482 385 962 451 1513 24 205 24 714 -1 932 -86 772 -328 1447
-743 2080 -634 965 -1580 1648 -2700 1949 -986 265 -2072 189 -3006 -210 -434
-186 -871 -456 -1202 -744 l-70 -61 3 258 3 259 82 60 c309 229 708 457 1053
602 452 190 1000 325 1494 367 69 6 145 12 170 14 80 7 612 -3 725 -14z
m-4104 -7917 c13 -16 12 -17 -3 -4 -10 7 -18 15 -18 17 0 8 8 3 21 -13z m229
-268 c19 -19 32 -35 29 -35 -3 0 -20 16 -39 35 -19 19 -32 35 -29 35 3 0 20
-16 39 -35z m6398 -372 c48 -23 90 -79 101 -137 17 -82 43 -3103 28 -3151 -6
-22 -29 -57 -51 -77 -67 -66 -165 -74 -248 -22 -24 15 -675 437 -1448 939
l-1405 911 -210 12 c-377 22 -638 61 -980 147 -592 150 -1153 406 -1648 753
-72 51 -144 103 -160 115 l-27 23 2 253 3 253 95 -78 c619 -511 1352 -858
2109 -999 226 -41 433 -65 686 -76 179 -8 248 -15 270 -26 16 -9 613 -395
1327 -859 l1298 -842 0 101 c0 56 -7 666 -15 1354 -9 836 -10 1264 -4 1288 15
54 73 113 128 129 50 16 98 12 149 -11z"/>
</g>
</svg>
